<?xml version="1.0" standalone="no"?>
<!DOCTYPE svg PUBLIC "-//W3C//DTD SVG 20010904//EN"
 "http://www.w3.org/TR/2001/REC-SVG-20010904/DTD/svg10.dtd">
<svg version="1.0" xmlns="http://www.w3.org/2000/svg"
 width="600.000000pt" height="400.000000pt" viewBox="0 0 600.000000 400.000000"
 preserveAspectRatio="xMidYMid meet">
<g transform="translate(0.000000,400.000000) scale(0.100000,-0.100000)"
fill="#000000" stroke="none">
<path d="M2073 3365 c-84 -26 -189 -108 -228 -176 -54 -95 -75 -166 -75 -252
0 -63 22 -168 40 -192 4 -5 11 -21 15 -34 4 -13 18 -34 31 -46 13 -12 24 -26
23 -31 0 -5 -32 -24 -72 -43 -53 -25 -92 -55 -152 -115 -129 -129 -202 -257
-246 -436 -24 -94 -24 -100 -24 -640 0 -513 2 -548 20 -595 30 -79 61 -121
119 -164 80 -59 162 -84 261 -79 130 7 224 63 316 187 l17 22 20 -33 c81 -130
286 -207 434 -164 154 44 268 159 313 315 27 91 36 177 38 338 1 156 2 164 22
168 23 5 203 35 255 43 34 4 34 4 18 -14 -71 -81 -100 -374 -49 -505 21 -54
105 -167 126 -168 6 -1 23 -12 38 -26 15 -14 27 -23 27 -20 0 3 13 -1 29 -9
57 -30 185 -37 286 -16 206 43 465 231 667 485 58 73 148 200 148 209 0 3 12
22 26 43 24 35 174 335 188 376 8 23 29 17 119 -34 93 -53 114 -58 125 -28 5
13 5 39 0 59 -5 19 -24 107 -43 195 -18 88 -45 214 -59 280 -14 66 -33 156
-42 200 -15 72 -35 115 -54 115 -4 0 -72 -55 -151 -123 -267 -228 -414 -352
-453 -382 -21 -16 -45 -36 -53 -44 -22 -21 -23 -10 -8 54 8 33 14 77 15 97 0
54 -26 170 -52 225 -28 62 -139 173 -201 201 -51 24 -51 24 -11 77 47 64 65
133 65 252 0 179 -95 333 -251 407 -60 29 -73 31 -170 31 -100 0 -108 -2 -167
-34 -133 -72 -241 -231 -250 -369 -3 -37 0 -92 5 -123 10 -51 57 -167 73 -179
3 -3 11 -15 17 -27 10 -19 9 -23 -11 -29 -12 -3 -52 -26 -88 -49 -88 -57 -168
-137 -219 -219 -13 -22 -26 -34 -28 -28 -2 7 6 27 17 46 12 18 21 41 21 49 0
44 -150 160 -266 204 l-64 25 18 26 c74 106 98 276 57 397 -34 99 -112 204
-188 252 -94 59 -234 80 -334 48z m280 -53 c112 -55 200 -173 228 -303 24
-111 -8 -254 -76 -343 l-33 -43 58 -17 c103 -31 290 -155 290 -193 0 -11 -60
-131 -76 -152 -2 -2 -23 14 -46 35 -230 211 -563 255 -797 104 -173 -112 -277
-282 -301 -495 -11 -104 -12 -561 -1 -867 6 -170 7 -177 31 -204 72 -77 213
-68 265 18 19 32 20 52 20 518 0 432 2 490 17 535 77 224 349 296 658 173 41
-16 76 -31 78 -33 2 -2 -8 -36 -23 -77 -14 -40 -27 -78 -30 -85 -3 -8 -19 -5
-53 12 -176 85 -334 97 -409 32 -61 -54 -63 -64 -63 -391 0 -286 -1 -298 -26
-397 -22 -83 -25 -117 -22 -188 3 -47 13 -108 22 -135 l18 -49 -29 -41 c-34
-49 -121 -110 -183 -128 -25 -7 -78 -12 -117 -11 -134 2 -256 80 -308 194
l-27 61 -2 557 -1 556 27 98 c33 119 63 187 123 277 79 119 227 239 332 270
l42 13 -44 49 c-69 77 -90 141 -90 273 0 103 2 114 32 177 52 110 138 189 246
224 26 9 73 13 124 11 67 -3 92 -9 146 -35z m1292 3 c237 -116 310 -476 134
-660 -33 -35 -36 -45 -14 -45 36 0 153 -74 198 -125 58 -66 107 -196 107 -285
0 -242 -157 -468 -416 -598 -134 -67 -368 -128 -674 -175 l-84 -13 -4 -194
c-4 -226 -17 -306 -67 -407 -41 -83 -106 -148 -193 -190 -51 -25 -68 -28 -157
-28 -93 0 -105 2 -166 32 -118 59 -192 166 -206 299 -19 180 127 396 351 519
71 39 216 95 246 95 19 0 20 8 20 173 1 296 36 452 140 610 82 127 214 237
332 278 l37 13 -34 37 c-108 120 -135 313 -64 458 52 105 150 197 243 227 68
23 204 12 271 -21z m1233 -1335 c27 -124 53 -233 57 -242 5 -12 -30 3 -101 43
-60 34 -115 66 -121 71 -9 7 -15 5 -19 -8 -46 -128 -178 -387 -261 -512 -171
-255 -397 -469 -598 -567 -111 -53 -176 -69 -285 -70 -100 0 -160 19 -235 75
-93 69 -134 151 -142 285 -6 90 7 190 37 288 l20 65 98 22 c53 13 105 27 115
32 14 7 10 -6 -16 -59 -57 -113 -71 -168 -72 -273 0 -118 18 -164 78 -203 51
-34 121 -36 207 -7 253 85 547 466 700 905 15 44 31 88 35 97 7 19 17 16 -173
44 -62 9 -112 20 -110 24 2 4 41 38 88 76 104 83 455 381 525 446 l50 47 37
-177 c21 -97 59 -278 86 -402z m-2472 456 c38 -12 96 -37 129 -54 54 -29 83
-50 164 -119 35 -30 45 -29 76 10 24 29 26 30 20 7 -4 -14 -11 -29 -15 -35
-10 -14 -56 -160 -69 -220 -18 -84 -19 -104 -20 -280 l-1 -170 -97 -35 c-105
-37 -225 -104 -295 -164 -63 -54 -143 -151 -169 -207 -13 -27 -28 -49 -33 -49
-4 0 -6 -9 -3 -20 3 -11 1 -20 -4 -20 -13 0 -11 22 7 71 13 36 16 103 19 354
2 171 6 317 8 325 10 43 21 58 59 84 40 26 48 27 128 23 47 -2 103 -11 125
-20 165 -63 171 -65 188 -52 10 7 26 38 37 69 10 31 23 62 27 69 25 39 8 61
-75 99 -137 62 -318 84 -438 53 -147 -38 -256 -151 -283 -296 -6 -32 -10 -245
-10 -517 l1 -464 -23 -24 c-30 -32 -87 -48 -135 -40 -46 9 -97 57 -87 82 4 10
2 15 -3 11 -16 -9 -15 961 0 1048 23 126 73 229 152 314 80 87 159 138 264
172 82 27 262 24 356 -5z m1721 -484 c27 -6 71 -14 98 -17 81 -10 118 -24 109
-44 -3 -9 -9 -26 -11 -38 -3 -13 -9 -23 -12 -23 -4 0 -8 -6 -8 -14 0 -38 -109
-270 -190 -405 -138 -229 -332 -415 -481 -461 -134 -42 -210 -15 -242 84 -21
65 -16 139 15 251 9 33 20 58 45 111 30 64 29 84 -4 84 -18 1 -19 2 -5 10 9 5
25 11 35 13 11 2 32 9 48 16 192 78 254 114 348 200 60 55 146 172 172 236 14
33 19 37 27 24 5 -10 30 -22 56 -27z"/>
<path d="M2127 3196 c-56 -21 -102 -60 -132 -113 -56 -100 -53 -202 8 -304 88
-147 282 -154 375 -14 92 139 54 330 -82 410 -53 31 -119 40 -169 21z m135
-35 c50 -25 95 -69 116 -111 23 -48 22 -181 -2 -231 -25 -54 -83 -108 -123
-115 -152 -29 -269 74 -267 236 2 104 45 178 127 219 52 26 102 27 149 2z"/>
<path d="M3395 3186 c-45 -19 -90 -69 -120 -131 -24 -47 -27 -64 -23 -127 5
-115 52 -191 143 -234 162 -77 330 49 329 246 -1 108 -54 199 -137 239 -50 24
-145 28 -192 7z m163 -21 c30 -7 94 -70 117 -115 12 -23 18 -58 18 -110 1 -65
-2 -82 -25 -121 -58 -99 -120 -130 -217 -111 -71 15 -118 52 -149 120 -33 73
-33 152 1 226 47 101 133 139 255 111z"/>
<path d="M3325 2466 c-204 -66 -330 -194 -396 -401 -19 -60 -23 -99 -27 -279
-3 -147 -1 -207 6 -202 6 4 75 18 154 32 474 82 706 201 806 411 32 69 37 87
37 153 -1 64 -5 83 -30 128 -64 116 -205 182 -390 182 -66 -1 -109 -7 -160
-24z m287 -13 c5 -2 20 -7 34 -9 60 -11 184 -92 184 -120 0 -9 4 -13 8 -10 18
11 43 -101 37 -161 -18 -174 -150 -308 -396 -400 -122 -46 -350 -101 -491
-118 l-58 -7 -1 53 c-3 176 4 291 23 364 18 71 86 195 137 248 84 88 217 156
313 160 27 1 48 6 48 10 0 9 147 0 162 -10z"/>
<path d="M2903 1500 c0 -41 2 -58 4 -37 2 20 2 54 0 75 -2 20 -4 3 -4 -38z"/>
<path d="M2625 1342 c-91 -36 -168 -86 -231 -152 -76 -77 -99 -128 -99 -221 0
-67 3 -80 28 -112 41 -54 80 -71 157 -71 72 0 110 16 151 61 63 67 80 135 88
351 7 198 14 186 -94 144z m64 -144 c-1 -272 -61 -380 -209 -382 -62 0 -111
21 -136 59 -83 126 16 305 228 414 122 63 118 66 117 -91z"/>
</g>
</svg>
